<svg width="177" height="21" viewBox="0 0 177 21" fill="none" xmlns="http://www.w3.org/2000/svg">
<path d="M4.55504 1.19037V20H0.679431V1.19037H4.55504ZM12.0479 9.22581V12.2488H3.49571V9.22581H12.0479ZM12.9522 1.19037V4.22627H3.49571V1.19037H12.9522ZM15.2 1.19037H22.2149C23.6532 1.19037 24.8891 1.40569 25.9226 1.83631C26.9647 2.26693 27.7656 2.90426 28.3254 3.74828C28.8853 4.5923 29.1652 5.6301 29.1652 6.86168C29.1652 7.86934 28.9929 8.73489 28.6484 9.45834C28.3125 10.1732 27.8345 10.7717 27.2144 11.254C26.603 11.7277 25.8838 12.1067 25.057 12.3909L23.8297 13.0368H17.7321L17.7063 10.0138H22.2407C22.9211 10.0138 23.4852 9.89327 23.9331 9.65212C24.3809 9.41097 24.7168 9.07509 24.9407 8.64446C25.1733 8.21384 25.2896 7.71432 25.2896 7.14589C25.2896 6.54302 25.1776 6.02197 24.9537 5.58273C24.7297 5.1435 24.3895 4.80761 23.9331 4.57507C23.4766 4.34254 22.9039 4.22627 22.2149 4.22627H19.0757V20H15.2V1.19037ZM25.7159 20L21.4269 11.6158L25.5221 11.5899L29.8628 19.8191V20H25.7159ZM36.2704 1.19037V20H32.4078V1.19037H36.2704ZM53.504 16.977V20H40.1719V16.977H53.504ZM53.3102 3.3478L41.8901 20H39.1642V17.778L50.6748 1.19037H53.3102V3.3478ZM51.9796 1.19037V4.22627H39.1772V1.19037H51.9796ZM69.5749 16.977V20H56.2428V16.977H69.5749ZM69.3811 3.3478L57.9609 20H55.2351V17.778L66.7457 1.19037H69.3811V3.3478ZM68.0504 1.19037V4.22627H55.248V1.19037H68.0504ZM74.6261 1.19037L78.5533 9.76839L82.4806 1.19037H86.705L80.517 13.1531V20H76.5897V13.1531L70.3887 1.19037H74.6261ZM93.1902 17.0158L96.9367 1.19037H99.0295L99.5075 3.82579L95.5156 20H93.2677L93.1902 17.0158ZM91.2653 1.19037L94.3658 17.0158L94.1075 20H91.6012L87.4285 1.19037H91.2653ZM102.802 16.9512L105.863 1.19037H109.7L105.541 20H103.034L102.802 16.9512ZM100.205 1.19037L103.977 17.0804L103.874 20H101.626L97.6084 3.81287L98.1252 1.19037H100.205ZM118.886 4.40713L113.77 20H109.649L116.638 1.19037H119.26L118.886 4.40713ZM123.136 20L118.007 4.40713L117.594 1.19037H120.242L127.27 20H123.136ZM122.903 12.9981V16.034H112.969V12.9981H122.903ZM135.822 1.19037V20H131.959V1.19037H135.822ZM141.61 1.19037V4.22627H126.262V1.19037H141.61ZM154.36 13.7603H158.223C158.145 15.0263 157.797 16.1502 157.177 17.132C156.565 18.1139 155.708 18.8804 154.606 19.4316C153.512 19.9828 152.194 20.2584 150.653 20.2584C149.447 20.2584 148.366 20.0517 147.41 19.6383C146.454 19.2163 145.636 18.6134 144.955 17.8297C144.284 17.0459 143.771 16.0986 143.418 14.9875C143.065 13.8765 142.888 12.632 142.888 11.254V9.94925C142.888 8.57126 143.069 7.32676 143.431 6.21575C143.801 5.09613 144.327 4.14445 145.007 3.36072C145.696 2.57698 146.519 1.97411 147.475 1.5521C148.431 1.13009 149.499 0.919082 150.678 0.919082C152.246 0.919082 153.568 1.20329 154.644 1.77172C155.73 2.34014 156.569 3.12387 157.164 4.12292C157.767 5.12197 158.128 6.25881 158.249 7.53346H154.373C154.33 6.77556 154.179 6.13393 153.921 5.60857C153.663 5.0746 153.271 4.67412 152.745 4.40713C152.229 4.13153 151.54 3.99373 150.678 3.99373C150.033 3.99373 149.468 4.11431 148.986 4.35546C148.504 4.59661 148.099 4.96263 147.772 5.45355C147.444 5.94446 147.199 6.56455 147.035 7.31384C146.88 8.05451 146.803 8.92437 146.803 9.92342V11.254C146.803 12.2272 146.876 13.0842 147.022 13.8249C147.169 14.5569 147.393 15.177 147.694 15.6852C148.004 16.1847 148.4 16.5636 148.883 16.822C149.374 17.0718 149.964 17.1966 150.653 17.1966C151.462 17.1966 152.13 17.0675 152.655 16.8091C153.18 16.5507 153.581 16.1675 153.856 15.6593C154.141 15.1512 154.309 14.5182 154.36 13.7603ZM173.312 8.85116V11.8741H163.494V8.85116H173.312ZM164.644 1.19037V20H160.768V1.19037H164.644ZM176.077 1.19037V20H172.214V1.19037H176.077Z" fill="#FF6B00"/>
</svg>
