<svg width="18" height="22" viewBox="0 0 18 22" fill="none" xmlns="http://www.w3.org/2000/svg">
<path d="M7.49122 16.3234H11.2394C11.5298 16.7076 11.7079 17.2042 11.7079 17.729C11.7079 19.0221 10.6584 20.0716 9.3653 20.0716C8.07219 20.0716 7.02271 19.0221 7.02271 17.729C7.02271 17.2042 7.20074 16.7076 7.49122 16.3234Z" stroke="#FDFDFD" stroke-opacity="0.6" stroke-width="2.20479" stroke-miterlimit="10" stroke-linecap="round" stroke-linejoin="round"/>
<path d="M7.87942 4.34103C8.35292 4.21126 8.85124 4.14196 9.36553 4.14196C9.87982 4.14196 10.3781 4.21126 10.8516 4.34103C11.1011 4.02369 11.2396 3.63277 11.2396 3.20492C11.2396 2.17418 10.3963 1.33085 9.36553 1.33085C8.33479 1.33085 7.49146 2.17418 7.49146 3.20492C7.49146 3.63277 7.62994 4.02369 7.87942 4.34103Z" stroke="#FDFDFD" stroke-opacity="0.6" stroke-width="2.20479" stroke-miterlimit="10" stroke-linecap="round" stroke-linejoin="round"/>
<path d="M3.74272 12.5753L1.86865 16.3235H16.8612L14.9872 12.5753V9.76423C14.9872 6.66264 12.4665 4.14201 9.36494 4.14201C6.26335 4.14201 3.74272 6.66264 3.74272 9.76423V12.5753Z" stroke="#FDFDFD" stroke-opacity="0.6" stroke-width="2.20479" stroke-miterlimit="10" stroke-linecap="round" stroke-linejoin="round"/>
</svg>
